<svg xmlns="http://www.w3.org/2000/svg" xmlns:xlink="http://www.w3.org/1999/xlink" data-stacking-context="true" aria-owns="block-canvas1" width="278" height="278" viewBox="957 152 400 400"><!-- Generated by dom-to-svg from http://ailogo.woa.com/ --><style></style><g data-stacking-layer="rootBackgroundAndBorders"></g><g data-stacking-layer="childStackingContextsWithNegativeStackLevels"></g><g data-stacking-layer="inFlowNonInlineNonPositionedDescendants"></g><g data-stacking-layer="nonPositionedFloats"></g><g data-stacking-layer="inFlowInlineLevelNonPositionedDescendants"></g><g data-stacking-layer="childStackingContextsWithStackLevelZeroAndPositionedDescendantsWithStackLevelZero"></g><g data-stacking-layer="childStackingContextsWithPositiveStackLevels"><g data-tag="div" id="block-canvas1" class="block-canvas notcopy top" data-z-index="2" data-stacking-context="true" aria-owns="div1 block1"><g data-stacking-layer="rootBackgroundAndBorders"><rect width="400" height="400" x="957" y="152" fill="rgb(255, 255, 255)"></rect></g><g data-tag="div" id="div1" data-z-index="auto" data-stacking-context="true" aria-owns="circle-bg1"><g data-tag="div" id="circle-bg1" class="circle-bg" data-z-index="auto" data-stacking-context="true" aria-owns="svg1"><g data-tag="svg" id="svg1" data-z-index="auto" data-stacking-context="true" mask="url(#mask-for-svg11)"><g data-stacking-layer="rootBackgroundAndBorders"></g><g data-stacking-layer="childStackingContextsWithNegativeStackLevels"></g><g data-stacking-layer="inFlowNonInlineNonPositionedDescendants"></g><g data-stacking-layer="nonPositionedFloats"></g><g data-stacking-layer="inFlowInlineLevelNonPositionedDescendants"></g><g data-stacking-layer="childStackingContextsWithStackLevelZeroAndPositionedDescendantsWithStackLevelZero"></g><g data-stacking-layer="childStackingContextsWithPositiveStackLevels"></g><mask id="mask-for-svg11"><rect width="278" height="278" x="1013" y="208" fill="#ffffff"></rect></mask><g class="svg-content" data-view-box="0 0 202 202" data-width="202px" data-height="202px" transform="matrix(1.37624 0 0 1.37624 1013 208)">
  <title style="null;fill:#779F01">八边形</title>
  <g id="svg1-容器组合" stroke="none" stroke-width="1" fill="none" fill-rule="evenodd" color="rgb(119, 159, 1)">
    <g id="svg1-容器" transform="matrix(1, 0, 0, 1, -1099, -123)" color="rgb(119, 159, 1)" fill="none" fill-rule="evenodd" stroke="none">
      <g id="svg1-容器3" transform="matrix(1, 0, 0, 1, 1000, 100)" color="rgb(119, 159, 1)" fill="none" fill-rule="evenodd" stroke="none">
        
        <path d="M153.526412,211.876837 L112.123163,170.473588 C107.562278,165.912703 105,159.726816 105,153.276751 L105,94.7232488 C105,88.2731838 107.562278,82.0872966 112.123163,77.5264119 L153.526412,36.1231631 C158.087297,31.5622784 164.273184,29 170.723249,29 L229.276751,29 C235.726816,29 241.912703,31.5622784 246.473588,36.1231631 L287.876837,77.5264119 C292.437722,82.0872966 295,88.2731838 295,94.7232488 L295,153.276751 C295,159.726816 292.437722,165.912703 287.876837,170.473588 L246.473588,211.876837 C241.912703,216.437722 235.726816,219 229.276751,219 L170.723249,219 C164.273184,219 158.087297,216.437722 153.526412,211.876837 Z" id="svg1-八边形" fill="rgb(119, 159, 1)" fill-rule="nonzero" transform="matrix(0.927184, 0.374607, -0.374607, 0.927184, 61.0144, -65.8921)" style="null;fill:#779F01" color="rgb(119, 159, 1)" stroke="none"></path>
      </g>
    </g>
  </g>
</g></g></g></g><g data-stacking-layer="childStackingContextsWithPositiveStackLevels"><g data-tag="div" id="block1" class="block right" data-z-index="2" data-stacking-context="true" mask="url(#mask-for-block11)" aria-owns="info1 info2"><mask id="mask-for-block11"><rect width="278" height="215" x="1013" y="239.5" fill="#ffffff"></rect></mask><g data-tag="div" id="info1" class="info right-top" data-z-index="auto" data-stacking-context="true" aria-owns="icon1"><g data-tag="div" id="icon1" class="icon" data-z-index="auto" data-stacking-context="true" aria-owns="div2"><g data-tag="div" id="div2" data-z-index="auto" data-stacking-context="true" aria-owns="svg2"><g data-tag="svg" id="svg2" data-z-index="auto" data-stacking-context="true" mask="url(#mask-for-svg21)"><g data-stacking-layer="rootBackgroundAndBorders"></g><g data-stacking-layer="childStackingContextsWithNegativeStackLevels"></g><g data-stacking-layer="inFlowNonInlineNonPositionedDescendants"></g><g data-stacking-layer="nonPositionedFloats"></g><g data-stacking-layer="inFlowInlineLevelNonPositionedDescendants"></g><g data-stacking-layer="childStackingContextsWithStackLevelZeroAndPositionedDescendantsWithStackLevelZero"></g><g data-stacking-layer="childStackingContextsWithPositiveStackLevels"></g><mask id="mask-for-svg21"><rect width="103.1875" height="103.1875" x="1100.390625" y="282.390625" fill="#ffffff"></rect></mask><g class="svg-content" data-view-box="0 0 48 48" data-width="" data-height="" transform="matrix(2.14974 0 0 2.14974 1100.39 282.391)"><g color="rgb(51, 51, 51)" fill="rgb(51, 51, 51)" stroke="none"><path d="M12.3,36.8c-0.3,0-0.6-0.1-0.8-0.3L0.8,24.7c-0.4-0.4-0.4-1,0-1.4l10.7-11.8c0.4-0.4,1-0.4,1.4-0.1c0.4,0.4,0.4,1,0.1,1.4   L3,24l10.1,11.1c0.4,0.4,0.3,1.101-0.1,1.4C12.8,36.7,12.5,36.8,12.3,36.8z" style="null;fill:#FFFFFF" color="rgb(51, 51, 51)" fill="rgb(255, 255, 255)" stroke="none"></path></g><g color="rgb(51, 51, 51)" fill="rgb(51, 51, 51)" stroke="none"><path d="M35.8,36.8c-0.2,0-0.5-0.1-0.7-0.3c-0.399-0.4-0.399-1-0.1-1.4L45.1,24l-10-11.1c-0.399-0.4-0.3-1.1,0.101-1.4   c0.399-0.4,1.1-0.3,1.399,0.1l10.7,11.8c0.4,0.4,0.4,1,0,1.4L36.6,36.5C36.4,36.7,36.1,36.8,35.8,36.8z" style="null;fill:#FFFFFF" color="rgb(51, 51, 51)" fill="rgb(255, 255, 255)" stroke="none"></path></g><g color="rgb(51, 51, 51)" fill="rgb(51, 51, 51)" stroke="none"><path d="M18.7,41.1c-0.1,0-0.2,0-0.3-0.1c-0.5-0.2-0.8-0.8-0.6-1.3L28.5,7.6c0.2-0.5,0.8-0.8,1.3-0.6s0.8,0.8,0.601,1.3L19.7,40.4   C19.5,40.8,19.1,41.1,18.7,41.1z" style="null;fill:#FFFFFF" color="rgb(51, 51, 51)" fill="rgb(255, 255, 255)" stroke="none"></path></g></g></g></g></g></g><g data-tag="div" id="info2" class="info right-bottom" data-z-index="auto" data-stacking-context="true" aria-owns="info-group1"><g data-tag="div" id="info-group1" class="info-group" data-z-index="auto" data-stacking-context="true" aria-owns="name1"><g data-tag="div" id="name1" class="name" data-z-index="auto" data-stacking-context="true" aria-owns="div3"><g data-tag="div" id="div3" data-z-index="auto" data-stacking-context="true" aria-owns="div4"><g data-tag="div" id="div4" data-z-index="auto" data-stacking-context="true" aria-owns="span1"><g data-tag="span" id="span1" data-z-index="auto" data-stacking-context="true" aria-owns="name-svg1"><g data-tag="div" id="name-svg1" class="name-svg" data-z-index="auto" data-stacking-context="true" aria-owns="svg3"><g data-tag="svg" id="svg3" data-z-index="auto" data-stacking-context="true" mask="url(#mask-for-svg31)"><g data-stacking-layer="rootBackgroundAndBorders"></g><g data-stacking-layer="childStackingContextsWithNegativeStackLevels"></g><g data-stacking-layer="inFlowNonInlineNonPositionedDescendants"></g><g data-stacking-layer="nonPositionedFloats"></g><g data-stacking-layer="inFlowInlineLevelNonPositionedDescendants"></g><g data-stacking-layer="childStackingContextsWithStackLevelZeroAndPositionedDescendantsWithStackLevelZero"></g><g data-stacking-layer="childStackingContextsWithPositiveStackLevels"></g><mask id="mask-for-svg31"><rect width="101.890625" height="28" x="1101.046875" y="392.5" fill="#ffffff"></rect></mask><g class="svg-content" data-view-box="" data-width="101.892" data-height="28" transform="matrix(1 0 0 1 1101.05 392.5)"><path fill="rgb(255, 255, 255)" d="M16.10 2.83L2.35 26.63L-1.15 26.63L12.60 2.83L16.10 2.83ZM31.02 2.83L17.28 26.63L13.78 26.63L27.52 2.83L31.02 2.83ZM38.61 16.30L38.61 12.96L47.77 12.96L47.77 24.05L39.42 24.05Q37.27 24.05 35.99 23.73Q34.72 23.41 33.68 22.60L33.68 22.60Q30.74 20.33 30.74 14.78L30.74 14.78Q30.74 11.17 32.14 8.76L32.14 8.76Q33.18 7 34.97 6.19Q36.76 5.38 39.62 5.38L39.62 5.38L47.77 5.38L47.77 8.71L40.07 8.71Q37.58 8.71 36.46 9.80L36.46 9.80Q35.11 11.09 35.11 14.42L35.11 14.42Q35.11 16.13 35.46 17.50Q35.81 18.87 36.43 19.54L36.43 19.54Q36.96 20.16 37.90 20.44Q38.84 20.72 40.21 20.72L40.21 20.72L43.82 20.72L43.82 16.30L38.61 16.30ZM57.32 10.22L57.32 10.22Q61.10 10.22 62.89 12.40L62.89 12.40Q64.54 14.39 64.54 17.42L64.54 17.42Q64.54 20.61 62.47 22.51L62.47 22.51Q60.56 24.25 57.26 24.25L57.26 24.25Q53.84 24.25 51.91 22.29L51.91 22.29Q50.12 20.52 50.12 17.14L50.12 17.14Q50.12 14.28 51.83 12.38L51.83 12.38Q53.73 10.25 57.32 10.22ZM57.34 13.08L57.34 13.08Q53.96 13.08 53.96 17.28L53.96 17.28Q53.96 18.98 54.52 19.88L54.52 19.88Q55.44 21.39 57.37 21.39L57.37 21.39Q60.70 21.39 60.70 17.22L60.70 17.22Q60.70 13.13 57.34 13.08ZM70.22 24.05L65.58 24.05L73.30 5.38L77.87 5.38L85.60 24.05L80.95 24.05L79.13 19.74L72.04 19.74L70.22 24.05ZM78.26 16.41L75.60 9.88L72.94 16.41L78.26 16.41ZM87.53 24.05L87.53 10.42L94.75 10.42Q96.38 10.42 97.23 10.65Q98.08 10.89 98.78 11.51L98.78 11.51Q100.21 12.82 100.21 15.65L100.21 15.65L100.21 24.05L96.46 24.05L96.46 15.23Q96.46 14.22 96.01 13.78Q95.56 13.33 94.53 13.33L94.53 13.33L91.28 13.33L91.28 24.05L87.53 24.05Z" style="null;fill:#FFFFFF" color="rgb(255, 255, 255)" stroke="none"></path></g></g></g></g></g></g></g></g></g></g></g></g></g></svg>