<svg width="81" height="80" xmlns="http://www.w3.org/2000/svg">
  <defs>
    <linearGradient y2="49.963%" y1="49.963%" x2="100.053%" x1="-.031%" id="pluginsdk_80-a">
      <stop stop-color="#F97A12" offset="25.81%"/>
      <stop stop-color="#B07B58" offset="45.91%"/>
      <stop stop-color="#577BAE" offset="72.41%"/>
      <stop stop-color="#1E7CE5" offset="91.05%"/>
      <stop stop-color="#087CFA" offset="100%"/>
    </linearGradient>
    <linearGradient y2="77.605%" y1="34.514%" x2="82.223%" x1="27.55%" id="pluginsdk_80-b">
      <stop stop-color="#F97A12" offset="0%"/>
      <stop stop-color="#CB7A3E" offset="7.18%"/>
      <stop stop-color="#9E7B6A" offset="15.41%"/>
      <stop stop-color="#757B91" offset="24.2%"/>
      <stop stop-color="#537BB1" offset="33.44%"/>
      <stop stop-color="#387CCC" offset="43.24%"/>
      <stop stop-color="#237CE0" offset="53.81%"/>
      <stop stop-color="#147CEF" offset="65.52%"/>
      <stop stop-color="#0B7CF7" offset="79.25%"/>
      <stop stop-color="#087CFA" offset="100%"/>
    </linearGradient>
    <linearGradient y2="-6.587%" y1="97.699%" x2="40.793%" x1="63.121%" id="pluginsdk_80-c">
      <stop stop-color="#FE315D" offset="0%"/>
      <stop stop-color="#CB417E" offset="7.84%"/>
      <stop stop-color="#9E4E9B" offset="16.01%"/>
      <stop stop-color="#755BB4" offset="24.74%"/>
      <stop stop-color="#5365CA" offset="33.92%"/>
      <stop stop-color="#386DDB" offset="43.65%"/>
      <stop stop-color="#2374E9" offset="54.14%"/>
      <stop stop-color="#1478F3" offset="65.76%"/>
      <stop stop-color="#0B7BF8" offset="79.4%"/>
      <stop stop-color="#087CFA" offset="100%"/>
    </linearGradient>
    <linearGradient y2="132.621%" y1="24.119%" x2="93.854%" x1="25.331%" id="pluginsdk_80-d">
      <stop stop-color="#FE315D" offset="0%"/>
      <stop stop-color="#F63462" offset="4.023%"/>
      <stop stop-color="#DF3A71" offset="10.37%"/>
      <stop stop-color="#C24383" offset="16.67%"/>
      <stop stop-color="#AD4A91" offset="29.12%"/>
      <stop stop-color="#755BB4" offset="54.98%"/>
      <stop stop-color="#1D76ED" offset="91.75%"/>
      <stop stop-color="#087CFA" offset="100%"/>
    </linearGradient>
  </defs>
  <g>
    <title>background</title>
    <rect fill="none" id="canvas_background" height="402" width="582" y="-1" x="-1"/>
  </g>
  <g>
    <title>Layer 1</title>
    <g id="svg_1" fill-rule="evenodd" fill="none">
      <g id="svg_2" fill-rule="nonzero">
        <path id="svg_3" d="m14.08755,72l-6.08755,-4.89991l0,-32.30819l30,11.87844l-19.8596,25.32966l-4.05285,0z" fill="url(#pluginsdk_80-a)"/>
        <path id="svg_4" d="m28.95247,72l31.32162,-32.08409l-14.60321,-31.45572l0.38721,-0.46019l25.94191,0l0,64l-43.04753,0z" fill="url(#pluginsdk_80-b)"/>
        <path id="svg_5" d="m42.41238,8l29.58762,0l0,28.03662l-14.99217,15.96338l-15.00783,-43.55304l0.41238,-0.44696z" fill="url(#pluginsdk_80-c)"/>
        <path id="svg_6" d="m38.33588,72l-30.33588,0l0,-14.02905l6.23438,-20.6879l-6.23438,-2.12344l0,-27.15961l39.46972,0l18.53028,21.38448l-27.46187,42.54143l-0.20225,0.07409z" fill="url(#pluginsdk_80-d)"/>
      </g>
      <g id="svg_7" fill-rule="nonzero">
        <rect id="svg_8" x="12" y="12" fill="#000" height="56" width="56"/>
        <rect id="svg_9" fill="#FFFEFE" y="58" x="16" height="4" width="22"/>
        <!--      <path fill="#FFFEFE" d="M11.128,25.28 C8.584,25.28 6.016,24.392 4,22.592 L6.184,19.976 C7.696,21.224 9.28,22.016 11.2,22.016 C12.712,22.016 13.624,21.416 13.624,20.432 L13.624,20.384 C13.624,19.448 13.048,18.968 10.24,18.248 C6.856,17.384 4.672,16.448 4.672,13.112 L4.672,13.064 C4.672,10.016 7.12,8 10.552,8 C13,8 15.088,8.768 16.792,10.136 L14.872,12.92 C13.384,11.888 11.92,11.264 10.504,11.264 C9.088,11.264 8.344,11.912 8.344,12.728 L8.344,12.776 C8.344,13.88 9.064,14.24 11.968,14.984 C15.376,15.872 17.296,17.096 17.296,20.024 L17.296,20.072 C17.296,23.408 14.752,25.28 11.128,25.28 Z M19.512,25.04 L19.512,8.24 L26.064,8.24 C31.344,8.24 34.992,11.864 34.992,16.592 L34.992,16.64 C34.992,21.368 31.344,25.04 26.064,25.04 L19.512,25.04 Z M26.064,11.576 L23.208,11.576 L23.208,21.704 L26.064,21.704 C29.088,21.704 31.128,19.664 31.128,16.688 L31.128,16.64 C31.128,13.664 29.088,11.576 26.064,11.576 Z M37.28,25.04 L37.28,8.24 L40.976,8.24 L40.976,15.584 L47.744,8.24 L52.28,8.24 L45.416,15.368 L52.568,25.04 L48.128,25.04 L42.92,17.888 L40.976,19.904 L40.976,25.04 L37.28,25.04 Z"/>-->
      </g>
    </g>
    <line stroke-linecap="undefined" stroke-linejoin="undefined" id="svg_18" y2="31.85417" x2="-144.16665" y1="32.12084" x1="-144.16665" stroke-width="1.5" fill="none"/>
    <line stroke="#00bf5f" stroke-linecap="undefined" stroke-linejoin="undefined" id="svg_20" y2="30.52084" x2="15.56667" y1="18.52084" x1="19.3" stroke-width="1.5" fill="#FFFEFE"/>
    <line stroke="#00bf5f" stroke-linecap="undefined" stroke-linejoin="undefined" id="svg_21" y2="30.25417" x2="19.3" y1="18.25417" x1="23.03333" stroke-width="1.5" fill="#FFFEFE"/>
    <text stroke="#00bf5f" transform="matrix(0.8403118848800659,0,0,0.33242636919021606,6.192904714494944,19.912469706498086) " xml:space="preserve" text-anchor="start" font-family="Helvetica, Arial, sans-serif" font-size="24" id="svg_22" y="24.38751" x="25.43333" stroke-width="0" fill="#000000"/>
    <text style="cursor: move;" stroke="#d9f4e6" transform="matrix(0.3821821545491068,0,0,0.37499112125682754,18.633690582038998,18.451050280864486) " xml:space="preserve" text-anchor="start" font-family="Helvetica, Arial, sans-serif" font-size="24" id="svg_24" y="26.84137" x="13.11059" stroke-width="0" fill="#00bf5f">Foo is foo</text>
    <text stroke="#d9f4e6" transform="matrix(0.4528952241146706,0,0,0.5008178445822209,7.057628336198721,27.65447997427459) " xml:space="preserve" text-anchor="start" font-family="Helvetica, Arial, sans-serif" font-size="24" id="svg_25" y="35.50664" x="18.21318" fill-opacity="null" stroke-opacity="null" stroke-width="0" fill="#00bf5f">func Foo(</text>
  </g>
</svg>